<svg xmlns="http://www.w3.org/2000/svg" viewBox="0 0 238 52"><title>berkeley-haas-wordmark</title><path d="M179.93,20a7,7,0,0,1,2.77-5.37A9.34,9.34,0,0,1,188.28,13c5.54,0,7.65,2.81,7.65,6.82V34.09a6.67,6.67,0,0,0,.29,1.82H191c-0.12-.58-0.21-1.28-0.37-2.19a8.58,8.58,0,0,1-6.2,2.6c-3.14,0-5.17-1.74-5.17-5.37,0-5.21,5-7.44,11.45-9.38V19.92A2.43,2.43,0,0,0,188,17.23,2.8,2.8,0,0,0,185.13,20h-5.21Zm10.79,4.92c-3.1,1.08-6.24,2.81-6.24,5.17a2.16,2.16,0,0,0,2.32,2.36c1.57,0,2.69-.83,3.93-2.07V24.92Z" style="fill:#14284b"/><path d="M199.7,20a7,7,0,0,1,2.77-5.37A9.34,9.34,0,0,1,208.05,13c5.54,0,7.65,2.81,7.65,6.82V34.09a6.67,6.67,0,0,0,.29,1.82h-5.21c-0.12-.58-0.21-1.28-0.37-2.19a8.58,8.58,0,0,1-6.2,2.6c-3.14,0-5.17-1.74-5.17-5.37,0-5.21,5-7.44,11.45-9.38V19.92a2.43,2.43,0,0,0-2.69-2.69A2.8,2.8,0,0,0,204.91,20H199.7Zm10.79,4.92c-3.1,1.08-6.24,2.81-6.24,5.17a2.16,2.16,0,0,0,2.32,2.36c1.57,0,2.69-.83,3.93-2.07V24.92Z" style="fill:#14284b"/><path d="M229.53,20.29c-0.7-2.07-2-3.06-3.6-3.06a2,2,0,0,0-2.11,2c0,3.47,10.17,3.55,10.17,10.25,0,4.46-3.14,6.82-7.48,6.82-3.14,0-6-.79-8.47-6.41l4.67-1.28c0.45,2.11,1.74,3.47,3.8,3.47,1.57,0,2.52-.74,2.52-2,0-4.3-10.17-3.26-10.17-10.83C218.87,15,222.3,13,226,13a8.08,8.08,0,0,1,7.85,5.62Z" style="fill:#14284b"/><polygon points="170.29 2.6 170.29 16.2 160.91 16.2 160.91 2.6 155.18 2.6 155.18 35.89 160.91 35.89 160.91 21.13 170.29 21.13 170.29 35.89 176.03 35.89 176.03 2.6 170.29 2.6" style="fill:#14284b"/><path d="M16.2,36.5c-2.3,0-4.61-.55-7-0.55s-3.51.22-5.26,0.22c-0.55,0-.93-0.06-0.93-0.6s0.33-.66,1.54-0.66C7,34.91,7.1,34.8,7.1,34V8.75c0-4.33-.88-4.83-2.41-4.83C2.22,3.93,2,3.87,2,3.21c0-.38.16-0.44,1.1-0.44,1.7,0,3.4.05,5.32,0.05,1.15,0,3.78-.33,8.72-0.33,7.13,0,10.2,3.67,10.2,7.57s-2.36,5.81-4.11,7A18.85,18.85,0,0,0,21,18.57c0,0.11,1,.38,2.14.93,2.58,1.32,5.81,3.18,5.81,8,0,6.14-5.1,9-12.72,9M15.49,3.82c-3.62,0-3.78.49-3.78,1.59v11.9c0,0.88.71,0.77,2,.77a44.18,44.18,0,0,1,5.65.33c1.59-1.21,3.4-2.25,3.4-6.58,0-2.74-2.3-8-7.29-8m-1.81,15.3c-1.54,0-2,.22-2,1.43v9.82c0,0.49.16,3.56,0.66,4.11s2.36,1,4.11,1c4.17,0,7.24-2.85,7.24-7.62,0-4.94-4.06-8.77-10-8.77" style="fill:#10284b"/><path d="M46.41,22.88A74.07,74.07,0,0,1,35,24.55c-0.76,0-.91.29-0.91,1.38,0,6.58,5.1,8.35,8.73,8.35a12.75,12.75,0,0,0,5.15-1.14,0.45,0.45,0,0,1,.38.38,13.52,13.52,0,0,1-7.92,3.24c-3.91,0-9.73-1.91-9.73-9.87,0-6.73,4.53-10.73,8.87-10.73a10.6,10.6,0,0,1,7.25,3.58,7.27,7.27,0,0,1,1.57,2.48c0,0.19-.67.38-2,0.67m-7.34-5.72c-3.62,0-4.77,5.44-4.77,6.1,0,0.24,0,.29.57,0.29,2.48,0,5.06-.62,8.63-1.19,0.52-.1.57-0.19,0.57-0.48,0-1.19-2.81-4.72-5-4.72" style="fill:#10284b"/><path d="M63.86,21.59c-0.67,0-1.24-2-3.63-2-2.77,0-3.82,1.14-3.82,3.15v9.83c0,2.34.14,2.34,3.67,2.34,1.24,0,1.29.14,1.29,0.57s0,0.48-1.29.48c-0.67,0-3.86-.24-5.39-0.24S51.46,36,50.79,36c-1.1,0-1.19,0-1.19-.48s0-.57,1.19-0.57c2,0,2.1,0,2.1-.72V21.16c0-3.24.1-3.34-2.57-3.34-0.86,0-.86,0-0.86-0.48s0-.72.76-0.72c1.62,0,2.53.1,3.48,0.1,0.76,0,1.67-.24,2.43-0.24a0.43,0.43,0,0,1,.38.53c0,0.24-.1,1.29-0.1,1.43,0,0.43,0,.76.24,0.76,0.72,0,3-2.48,5.2-2.48,0.86,0,3.05,1,3.05,2.29,0,0.48-.76,2.58-1,2.58" style="fill:#10284b"/><path d="M86.42,36.19c-0.57,0-1.19,0-1.62,0s-2,0-2.67,0c-0.86,0-1.29-1.19-3.29-3.48s-4-5.29-4.29-5.29a8.79,8.79,0,0,0-1.67,1c-0.76.48-1.43,0.81-1.43,1.24v3c0,2.24-.1,2.24,2.86,2.24,1.1,0,1.29.24,1.29,0.62S75.36,36,74.31,36c-0.72,0-2.91-.1-4.43-0.1s-3.39.1-4.05,0.1c-1.1,0-1.38,0-1.38-.48s0.24-.62,1.38-0.62c1.62,0,2.05,0,2.05-.72,0-1.38.14-15.5,0.14-25.56,0-3.39-.38-3.82-1.67-3.82-2,0-2.15-.14-2.15-0.48s0.1-.67.62-0.67a29.22,29.22,0,0,0,6.68-1c0.24,0,.33.14,0.33,0.43,0,0.62-.1,2.62-0.1,4.15,0,7.25-.29,12.59-0.29,20.37,0,0.19,0,.33.19,0.33,1.19,0,6.15-4.39,7.68-5.82,1.86-1.76,2.29-2.57,2.29-3.58,0-.76-0.14-0.86-2.24-0.86-0.72,0-1-.1-1-0.52s0.24-.48.86-0.48,1.38,0.14,2,.14,3.39-.14,4-0.14c0.38,0,.57,0,0.57.19,0,0.43-1.62,2.48-3.1,3.91-2.39,2.34-5.34,4.44-5.34,4.77s0.86,1.34,4.2,5.34c1.62,2,3.15,4.29,4.77,4.29,1.14,0,1.53.24,1.53,0.62s-0.33.43-1.38,0.43" style="fill:#10284b"/><path d="M102,22.88a74.08,74.08,0,0,1-11.45,1.67c-0.76,0-.91.29-0.91,1.38,0,6.58,5.1,8.35,8.73,8.35a12.76,12.76,0,0,0,5.15-1.14,0.45,0.45,0,0,1,.38.38A13.52,13.52,0,0,1,96,36.76c-3.91,0-9.73-1.91-9.73-9.87,0-6.73,4.53-10.73,8.87-10.73a10.61,10.61,0,0,1,7.25,3.58A7.28,7.28,0,0,1,104,22.21c0,0.19-.67.38-2,0.67m-7.35-5.72c-3.62,0-4.77,5.44-4.77,6.1,0,0.24,0,.29.57,0.29,2.48,0,5.05-.62,8.63-1.19,0.52-.1.57-0.19,0.57-0.48,0-1.19-2.81-4.72-5-4.72" style="fill:#10284b"/><path d="M112.52,36c-0.72,0-1.76-.1-2.62-0.1-1.62,0-4.15.1-4.82,0.1-1.1,0-1.19-.1-1.19-0.48s0-.62,1.19-0.62c2,0,2.77,0,2.77-.81V7.81c0-3-.29-3-2.43-3-0.86,0-1.34-.09-1.34-0.62s0.38-.52,1.19-0.57a25.33,25.33,0,0,0,5.82-1c0.24,0,.48.24,0.48,0.76s-0.24,2.29-.24,3.72c0,18.17-.24,21.94-0.24,23.32,0,4,.33,4.48,1.19,4.48,2.38,0,2.29.29,2.29,0.67s-0.33.48-2.05,0.48" style="fill:#10284b"/><path d="M129.53,22.88a74.06,74.06,0,0,1-11.45,1.67c-0.76,0-.91.29-0.91,1.38,0,6.58,5.1,8.35,8.73,8.35a12.74,12.74,0,0,0,5.15-1.14,0.45,0.45,0,0,1,.38.38,13.51,13.51,0,0,1-7.92,3.24c-3.91,0-9.73-1.91-9.73-9.87,0-6.73,4.53-10.73,8.87-10.73a10.6,10.6,0,0,1,7.25,3.58,7.27,7.27,0,0,1,1.57,2.48c0,0.19-.67.38-2,0.67m-7.35-5.72c-3.62,0-4.77,5.44-4.77,6.1,0,0.24,0,.29.57,0.29,2.48,0,5.06-.62,8.63-1.19,0.52-.1.57-0.19,0.57-0.48,0-1.19-2.82-4.72-5-4.72" style="fill:#10284b"/><path d="M151.14,17.78c-1,0-3.15,5.72-6.92,14.88-3,7.3-5.15,11.16-6.68,14.31-0.52,1-1.1,1.1-2.15,1.24-1.43.19-1.76,0.57-2.81,0.57-0.81,0-1.29-.24-1.29-0.48s2.24-.57,3.86-2.62,5.82-7.77,5.82-9.2c0-.53-3.81-9.35-6.44-15.55-1.19-2.86-1.53-3.1-2.38-3.1s-1,0-1-.48,0.14-.67,1-0.67c1.34,0,1.67.1,2.81,0.1,1.33,0,3-.14,4.53-0.14,1,0,1.19.19,1.19,0.72s-0.19.48-1.19,0.48-1.43.29-1.43,1.38c0,1.38,1.24,3.05,4.1,10.4a3.74,3.74,0,0,0,1.15,1.81c0.33,0,.62-0.67,1.38-2.91,1.14-3.43,2.86-8.39,2.86-9.06,0-1.43,0-1.72-1.62-1.72s-1.67,0-1.67-.48,0.14-.62,1-0.62c1.29,0,2.15.1,3.43,0.1,0.72,0,2-.19,2.67-0.19s1,0,1,.57a1.12,1.12,0,0,1-1.24.67" style="fill:#10284b"/></svg>